<svg width="60" height="75" viewBox="0 0 60 75" fill="none" xmlns="http://www.w3.org/2000/svg">
<g id="send 1" clip-path="url(#clip0_133_239)">
<g id="Group">
<g id="Group_2">
<path id="Vector" d="M45.3327 22.2622L6.83696 25.8008C5.21516 25.9499 3.82393 27.1976 3.20613 29.0566C2.58841 30.9159 2.86865 33.0118 3.9376 34.5263L12.3798 46.4881L26.2503 37.8333C26.8886 37.435 27.6673 37.7516 27.9896 38.5404C28.3119 39.3292 28.0558 40.2916 27.4174 40.69L13.547 49.3448L16.3233 64.8419C16.6748 66.8042 17.8731 68.3273 19.4505 68.8167C21.0309 69.3071 22.668 68.6606 23.7261 67.139L48.8857 30.9583C50.0312 29.311 50.2506 27.0833 49.4585 25.1444C48.6663 23.2055 47.0855 22.1009 45.3327 22.2622Z" fill="#7290FA"/>
</g>
</g>
</g>
<defs>
<clipPath id="clip0_133_239">
<rect width="46.4977" height="52.6627" fill="white" transform="matrix(0.848388 -0.529375 0.37821 0.92572 0.0517578 25.3833)"/>
</clipPath>
</defs>
</svg>
