<svg width="100" height="100" viewBox="0 0 100 100" fill="none" xmlns="http://www.w3.org/2000/svg">
<g id="Successmark" clip-path="url(#clip0_665_2808)">
<g id="Sticker">
<path id="Vector" d="M96.4807 49.9978C98.0251 48.1993 99.1074 46.0513 99.6336 43.7399C100.16 41.4285 100.114 39.0236 99.5006 36.7339C98.887 34.4441 97.724 32.3387 96.1125 30.6001C94.501 28.8616 92.4897 27.5425 90.253 26.7573C90.6912 24.4276 90.5544 22.026 89.8544 19.7611C89.1543 17.4962 87.9122 15.4363 86.2358 13.7601C84.5594 12.0839 82.4994 10.8421 80.2344 10.1424C77.9694 9.44263 75.5678 9.30611 73.2381 9.74466C72.4535 7.50744 71.1347 5.49554 69.3961 3.88364C67.6576 2.27174 65.5519 1.10857 63.2618 0.495106C60.9717 -0.118356 58.5665 -0.163562 56.255 0.363412C53.9435 0.890386 51.7956 1.97361 49.9977 3.51904C48.1992 1.97468 46.0512 0.892426 43.7398 0.36618C41.4284 -0.160066 39.0235 -0.114414 36.7338 0.499173C34.444 1.11276 32.3386 2.27575 30.6 3.88726C28.8615 5.49877 27.5424 7.51012 26.7572 9.74683C24.4276 9.30898 22.0263 9.44611 19.7617 10.1463C17.4971 10.8465 15.4375 12.0887 13.7616 13.765C12.0857 15.4414 10.8441 17.5013 10.1444 19.7661C9.44481 22.0309 9.30829 24.4322 9.74673 26.7617C7.51002 27.5469 5.49867 28.8659 3.88716 30.6045C2.27565 32.343 1.11265 34.4485 0.499062 36.7382C-0.114525 39.0279 -0.160184 41.4328 0.366062 43.7442C0.892308 46.0556 1.97458 48.2037 3.51895 50.0021C1.97411 51.8005 0.891505 53.9487 0.36511 56.2603C-0.161286 58.572 -0.115588 60.9771 0.498269 63.2671C1.11213 65.557 2.27557 67.6626 3.88763 69.4009C5.49969 71.1393 7.51167 72.458 9.7489 73.2425C9.31008 75.5721 9.44644 77.9736 10.1462 80.2385C10.8459 82.5034 12.0878 84.5633 13.7641 86.2394C15.4405 87.9156 17.5006 89.1572 19.7656 89.8566C22.0306 90.5561 24.4321 90.6921 26.7616 90.253C27.5468 92.4897 28.8658 94.5011 30.6044 96.1126C32.3429 97.7241 34.4483 98.8871 36.7381 99.5007C39.0278 100.114 41.4327 100.16 43.7441 99.6337C46.0555 99.1074 48.2036 98.0252 50.002 96.4808C51.8004 98.0257 53.9486 99.1083 56.2603 99.6347C58.5719 100.161 60.977 100.115 63.267 99.5015C65.5569 98.8876 67.6625 97.7242 69.4008 96.1121C71.1392 94.5001 72.4579 92.4881 73.2425 90.2509C75.5721 90.6895 77.9736 90.5531 80.2385 89.8534C82.5035 89.1536 84.5635 87.9118 86.2397 86.2355C87.916 84.5593 89.1579 82.4993 89.8576 80.2343C90.5574 77.9694 90.6938 75.5679 90.2551 73.2382C92.492 72.4532 94.5035 71.1341 96.1151 69.3956C97.7267 67.657 98.8896 65.5514 99.5031 63.2615C100.116 60.9716 100.162 58.5666 99.6351 56.2552C99.1084 53.9438 98.0257 51.7959 96.4807 49.9978Z" fill="#18C07A"/>
<path id="Vector_2" d="M41.0246 69.0843L27.1301 55.1986C26.6028 54.6704 26.3066 53.9546 26.3066 53.2082C26.3066 52.4619 26.6028 51.746 27.1301 51.2179L28.8182 49.5277C29.3464 49.0004 30.0622 48.7042 30.8085 48.7042C31.5549 48.7042 32.2707 49.0004 32.7989 49.5277L42.899 59.6213L66.6855 34.3439C67.1973 33.8008 67.9037 33.483 68.6496 33.4603C69.3956 33.4375 70.12 33.7117 70.664 34.2226L72.3976 35.8586C72.9413 36.3705 73.2595 37.0774 73.2822 37.8238C73.305 38.5703 73.0304 39.2952 72.5189 39.8393L45.0724 69.0215C44.814 69.2969 44.5028 69.5175 44.1574 69.6703C43.812 69.823 43.4394 69.9048 43.0618 69.9106C42.6842 69.9165 42.3092 69.8464 41.9593 69.7044C41.6093 69.5625 41.2914 69.3516 41.0246 69.0843Z" fill="white"/>
</g>
</g>
<defs>
<clipPath id="clip0_665_2808">
<rect width="100" height="100" fill="white"/>
</clipPath>
</defs>
</svg>
