<svg width="49" height="42" viewBox="0 0 49 42" fill="none" xmlns="http://www.w3.org/2000/svg">
<g id="vuesax/bold/element-4">
<g id="element-4">
<path id="Vector" d="M43.8952 19.075V7.175C43.8952 4.55 42.5885 3.5 39.3423 3.5H31.0939C27.8477 3.5 26.541 4.55 26.541 7.175V19.075C26.541 21.7 27.8477 22.75 31.0939 22.75H39.3423C42.5885 22.75 43.8952 21.7 43.8952 19.075Z" fill="#5D5A6F"/>
<path id="Vector_2" d="M22.4577 22.925V34.825C22.4577 37.45 21.151 38.5 17.9048 38.5H9.65643C6.41018 38.5 5.10352 37.45 5.10352 34.825V22.925C5.10352 20.3 6.41018 19.25 9.65643 19.25H17.9048C21.151 19.25 22.4577 20.3 22.4577 22.925Z" fill="#5D5A6F"/>
<path id="Vector_3" d="M43.8952 34.825V29.925C43.8952 27.3 42.5885 26.25 39.3423 26.25H31.0939C27.8477 26.25 26.541 27.3 26.541 29.925V34.825C26.541 37.45 27.8477 38.5 31.0939 38.5H39.3423C42.5885 38.5 43.8952 37.45 43.8952 34.825Z" fill="#5D5A6F"/>
<path id="Vector_4" d="M22.4577 12.075V7.175C22.4577 4.55 21.151 3.5 17.9048 3.5H9.65643C6.41018 3.5 5.10352 4.55 5.10352 7.175V12.075C5.10352 14.7 6.41018 15.75 9.65643 15.75H17.9048C21.151 15.75 22.4577 14.7 22.4577 12.075Z" fill="#5D5A6F"/>
</g>
</g>
</svg>
