<svg width="49" height="42" viewBox="0 0 49 42" fill="none" xmlns="http://www.w3.org/2000/svg">
<g id="vuesax/bold/logout">
<g id="logout">
<path id="Vector" d="M34.3 3.5H28.9917C22.4583 3.5 18.375 7 18.375 12.6V19.6875H31.1354C31.9725 19.6875 32.6667 20.2825 32.6667 21C32.6667 21.7175 31.9725 22.3125 31.1354 22.3125H18.375V29.4C18.375 35 22.4583 38.5 28.9917 38.5H34.2796C40.8129 38.5 44.8962 35 44.8962 29.4V12.6C44.9167 7 40.8333 3.5 34.3 3.5Z" fill="#5B5B5B" fill-opacity="0.69"/>
<path id="Vector_2" d="M9.30945 19.6875L13.5357 16.065C13.842 15.8025 13.9849 15.47 13.9849 15.1375C13.9849 14.805 13.842 14.455 13.5357 14.21C12.9436 13.7025 11.9636 13.7025 11.3715 14.21L4.53195 20.0725C3.93987 20.58 3.93987 21.42 4.53195 21.9275L11.3715 27.79C11.9636 28.2975 12.9436 28.2975 13.5357 27.79C14.1278 27.2825 14.1278 26.4425 13.5357 25.935L9.30945 22.3125H18.3745V19.6875H9.30945Z" fill="#5B5B5B" fill-opacity="0.69"/>
</g>
</g>
</svg>
