<svg width="75" height="80" viewBox="0 0 75 80" fill="none" xmlns="http://www.w3.org/2000/svg">
<g id="Group 32">
<path id="Ellipse 15" d="M73.9174 39.7077C73.9174 61.3926 57.4522 78.9153 37.2087 78.9153C16.9652 78.9153 0.5 61.3926 0.5 39.7077C0.5 18.0228 16.9652 0.5 37.2087 0.5C57.4522 0.5 73.9174 18.0228 73.9174 39.7077Z" stroke="#7290FA"/>
<path id="Arrow 2" d="M49.0788 40.4151C49.4693 40.0246 49.4693 39.3914 49.0788 39.0009L42.7148 32.6369C42.3243 32.2464 41.6911 32.2464 41.3006 32.6369C40.9101 33.0275 40.9101 33.6606 41.3006 34.0512L46.9574 39.708L41.3006 45.3649C40.9101 45.7554 40.9101 46.3886 41.3006 46.7791C41.6911 47.1696 42.3243 47.1696 42.7148 46.7791L49.0788 40.4151ZM25.1162 40.708L48.3716 40.708L48.3716 38.708L25.1162 38.708L25.1162 40.708Z" fill="#7290FA"/>
</g>
</svg>
