<svg width="35" height="69" viewBox="0 0 35 69" fill="none" xmlns="http://www.w3.org/2000/svg">
<g id="Group 69">
<g id="surface1">
<path id="Vector" d="M33.3879 29.33C32.2858 27.8856 30.725 27.4233 29.411 28.1518C29.0589 28.3473 28.7319 28.6214 28.439 28.9668C27.6919 29.8478 26.0334 32.4924 24.719 35.1097V14.9347C24.719 13.2199 24.2793 11.5438 23.5126 10.3358C22.7515 9.13664 21.7517 8.48991 20.7026 8.52135C20.2262 8.53498 19.7698 8.68644 19.3481 8.95111V6.98051C19.3481 5.11421 18.8694 3.28984 18.0344 1.97436C17.2069 0.670416 16.1241 -0.0323946 14.9788 0.00114753C12.6955 0.064563 10.8312 3.03985 10.7629 6.67706C10.2682 6.31753 9.73108 6.11576 9.17495 6.08903C8.01497 6.03452 6.86609 6.75411 6.02389 8.06487C5.19902 9.34837 4.74457 11.0428 4.74457 12.831L4.74163 14.7418C4.38559 14.5542 4.00601 14.4515 3.61139 14.4515C1.61999 14.4515 0 17.0484 0 20.2401L0.00130777 49.5674L0.00425022 49.7063C0.170663 53.5552 0.673172 56.8507 1.49837 59.5016C2.27191 61.9869 3.35115 63.9878 4.70599 65.449C7.3722 68.3252 10.6658 68.6942 13.2372 68.6942C18.2868 68.6942 22.8297 64.6697 25.1016 58.1877C25.3778 57.4739 26.1059 55.6385 26.8922 53.659C27.6579 51.7303 28.3703 49.9531 28.9984 48.385C29.3436 47.5229 29.6578 46.7388 29.9305 46.0554C30.9463 43.5089 32.0288 41.0398 33.1482 38.7165C33.5635 37.8549 33.6913 37.6212 33.7204 37.5698C34.2445 36.6532 34.5747 35.5311 34.6754 34.3241C34.834 32.4305 34.3645 30.6098 33.3879 29.33ZM32.1841 33.7895C32.1517 34.1753 32.0422 34.5411 31.8673 34.8471C31.7761 35.007 31.6129 35.311 31.1591 36.2533C29.9942 38.6704 28.8683 41.2379 27.8126 43.8846C27.5406 44.5665 27.2277 45.3474 26.8831 46.2074C26.2537 47.7786 25.5403 49.56 24.7717 51.495C23.9671 53.5212 23.2223 55.3979 22.9496 56.1039L22.9212 56.1815C21.0978 61.414 17.3874 64.6645 13.2375 64.6645C11.0232 64.6645 8.21146 64.3736 6.10955 62.1063C3.96482 59.793 2.78914 55.6684 2.51516 49.4966L2.51385 20.2406C2.51385 19.2705 3.00622 18.4812 3.61139 18.4812C4.22016 18.4812 4.71547 19.2705 4.71547 20.2406V31.2157C4.71547 31.2482 4.71776 31.2796 4.71842 31.3121C4.71972 31.3478 4.71972 31.3839 4.72201 31.4196C4.72397 31.4515 4.7279 31.4825 4.73084 31.5139C4.73411 31.549 4.7364 31.5847 4.74065 31.6198C4.7449 31.6512 4.75078 31.6821 4.75569 31.7131C4.76092 31.7461 4.76517 31.7801 4.77171 31.8126C4.77759 31.8441 4.78544 31.8745 4.79263 31.9049C4.7995 31.9358 4.80571 31.9672 4.81388 31.9976C4.82173 32.028 4.83121 32.0569 4.84004 32.0862C4.84887 32.1156 4.85704 32.1454 4.86652 32.1743C4.876 32.2026 4.88744 32.2298 4.89791 32.2576C4.90837 32.2854 4.91818 32.3137 4.92929 32.3404C4.94074 32.3671 4.95349 32.3923 4.96558 32.418C4.97768 32.4442 4.9888 32.4709 5.00155 32.4955C5.0143 32.5202 5.02836 32.5427 5.04143 32.5663C5.05517 32.5904 5.06824 32.6161 5.08263 32.6391C5.09669 32.6611 5.1114 32.6811 5.12611 32.7025C5.14115 32.7246 5.15586 32.7481 5.17188 32.7691C5.18692 32.789 5.20294 32.8068 5.21864 32.8257C5.23531 32.8456 5.25133 32.8666 5.26833 32.8855C5.28435 32.9028 5.30135 32.9174 5.3177 32.9332C5.33568 32.951 5.35334 32.9698 5.37197 32.9866C5.38897 33.0013 5.40695 33.0133 5.42428 33.027C5.44324 33.0422 5.46221 33.0579 5.48182 33.0715C5.49981 33.0841 5.5191 33.0935 5.5374 33.1045C5.55735 33.1161 5.57696 33.1292 5.59723 33.1396C5.61652 33.1491 5.63679 33.1559 5.65641 33.1643C5.67701 33.1727 5.69695 33.1826 5.71755 33.1894C5.73847 33.1962 5.7594 33.1999 5.78032 33.2052C5.80125 33.2099 5.82152 33.2167 5.84244 33.2204C5.86336 33.2235 5.88494 33.224 5.90619 33.2256C5.92712 33.2272 5.94804 33.2308 5.96929 33.2308C5.97027 33.2308 5.97158 33.2308 5.97256 33.2308C6.01605 33.2308 6.05888 33.2272 6.10105 33.2204C6.11936 33.2177 6.13734 33.2114 6.15565 33.2073C6.17886 33.202 6.20273 33.1978 6.22562 33.19C6.24981 33.1821 6.27302 33.1711 6.29656 33.1611C6.31291 33.1538 6.32991 33.1486 6.34593 33.1407C6.37209 33.1276 6.39759 33.1113 6.42309 33.0956C6.43551 33.0878 6.44892 33.0815 6.46134 33.0731C6.48684 33.0558 6.51103 33.0354 6.53556 33.016C6.54733 33.0065 6.55942 32.9987 6.57119 32.9887C6.59408 32.9688 6.61566 32.9457 6.63756 32.9237C6.64999 32.9117 6.66274 32.9007 6.67451 32.8876C6.69478 32.8661 6.71407 32.8414 6.73336 32.8173C6.74611 32.8021 6.75918 32.788 6.77128 32.7717C6.78926 32.7487 6.80561 32.7225 6.82261 32.6973C6.83536 32.679 6.84844 32.6611 6.86086 32.6423C6.87656 32.6171 6.89061 32.5899 6.90533 32.5637C6.91742 32.5422 6.9305 32.5212 6.94194 32.4992C6.95502 32.4735 6.96679 32.4463 6.97922 32.4195C6.99098 32.3944 7.00341 32.3703 7.0142 32.3441C7.02564 32.3173 7.03512 32.2896 7.04558 32.2618C7.05605 32.234 7.06749 32.2068 7.0773 32.1785C7.08678 32.1502 7.09462 32.1208 7.10345 32.092C7.11228 32.0621 7.12209 32.0328 7.13026 32.0024C7.13811 31.973 7.14399 31.9421 7.15086 31.9122C7.15838 31.8808 7.16623 31.8498 7.17276 31.8174C7.17865 31.7864 7.1829 31.755 7.1878 31.7235C7.19303 31.6905 7.19925 31.658 7.20382 31.6245C7.20775 31.593 7.21004 31.56 7.21298 31.5275C7.21657 31.4935 7.2205 31.4594 7.22279 31.4248C7.22507 31.3923 7.22507 31.3588 7.22606 31.3258C7.22736 31.2906 7.22965 31.2566 7.22965 31.2215L7.25875 12.8362C7.25875 12.1423 7.44216 11.4746 7.77499 10.9563C8.13266 10.4002 8.61654 10.0931 9.10074 10.1172C10.0077 10.1607 10.7456 11.4254 10.7456 12.9395L10.76 31.1093C10.76 31.146 10.7623 31.1816 10.7636 31.2173C10.7645 31.2492 10.7645 31.2823 10.7665 31.3137C10.7688 31.3514 10.7734 31.3876 10.777 31.4243C10.7799 31.4542 10.7819 31.4846 10.7855 31.5139C10.7907 31.5537 10.7979 31.5925 10.8044 31.6313C10.8087 31.6565 10.8119 31.6821 10.8165 31.7068C10.8247 31.7487 10.8352 31.7896 10.845 31.8305C10.8499 31.8509 10.8535 31.8719 10.8587 31.8918C10.8705 31.9353 10.8839 31.9777 10.8973 32.0197C10.9025 32.0354 10.9064 32.0521 10.9117 32.0673C10.9264 32.1108 10.9431 32.1522 10.9594 32.1931C10.9646 32.2068 10.9692 32.2204 10.9748 32.2335C10.9921 32.2749 11.0111 32.3137 11.03 32.3525C11.0359 32.3645 11.0411 32.3771 11.047 32.3886C11.0683 32.43 11.0912 32.4688 11.1144 32.5071C11.1193 32.5154 11.1232 32.5238 11.1281 32.5317C11.152 32.57 11.1775 32.6056 11.2033 32.6407C11.2082 32.6475 11.2125 32.6549 11.2174 32.6617C11.2432 32.6957 11.27 32.7267 11.2971 32.7571C11.303 32.7639 11.3082 32.7712 11.3141 32.7775C11.3416 32.8074 11.3704 32.8341 11.3991 32.8603C11.4053 32.8661 11.4112 32.8729 11.4178 32.8786C11.4478 32.9043 11.4789 32.9274 11.5103 32.9499C11.5162 32.9541 11.5217 32.9594 11.5276 32.9635C11.5597 32.985 11.5927 33.0034 11.626 33.0212C11.6319 33.0238 11.6371 33.028 11.643 33.0312C11.6761 33.0474 11.7097 33.0605 11.7434 33.0726C11.7503 33.0747 11.7568 33.0783 11.7637 33.0809C11.8454 33.1077 11.9301 33.1218 12.0167 33.1218C12.0174 33.1218 12.018 33.1218 12.0187 33.1218C12.0406 33.1218 12.0622 33.1182 12.0837 33.1166C12.1047 33.1145 12.1256 33.1145 12.1462 33.1113C12.1691 33.1072 12.191 33.1003 12.2135 33.0946C12.2325 33.0899 12.2521 33.0867 12.2711 33.0804C12.2936 33.0731 12.3155 33.0626 12.3378 33.0532C12.3558 33.0453 12.3737 33.0395 12.3914 33.0306C12.414 33.0196 12.4355 33.0055 12.4574 32.9918C12.4738 32.9819 12.4908 32.974 12.5068 32.963C12.5294 32.9473 12.5513 32.929 12.5732 32.9117C12.5876 32.9001 12.6026 32.8902 12.6167 32.8781C12.6382 32.8593 12.6588 32.8372 12.6798 32.8168C12.6932 32.8032 12.7072 32.7911 12.7203 32.777C12.7402 32.7555 12.7589 32.7314 12.7778 32.7078C12.7909 32.6921 12.8043 32.6774 12.8171 32.6606C12.8351 32.637 12.8521 32.6103 12.8694 32.5846C12.8815 32.5668 12.8942 32.5495 12.9063 32.5306C12.9224 32.5044 12.9374 32.4761 12.9528 32.4489C12.9642 32.4284 12.9763 32.4091 12.9874 32.3876C13.0011 32.3603 13.0136 32.3315 13.0263 32.3037C13.0374 32.2796 13.0492 32.2565 13.0597 32.2324C13.0714 32.2047 13.0812 32.1753 13.092 32.1465C13.1022 32.1198 13.1133 32.0936 13.1224 32.0663C13.1322 32.0375 13.1401 32.0071 13.1489 31.9777C13.1578 31.9484 13.1676 31.9201 13.1754 31.8897C13.1829 31.8609 13.1891 31.8305 13.1957 31.8006C13.2032 31.7686 13.2114 31.7372 13.2176 31.7047C13.2235 31.6732 13.2277 31.6413 13.2329 31.6093C13.2382 31.5768 13.2444 31.5448 13.2483 31.5118C13.2526 31.4788 13.2549 31.4447 13.2581 31.4117C13.2611 31.3782 13.2653 31.3451 13.2673 31.3116C13.2696 31.2775 13.2696 31.2429 13.2705 31.2084C13.2719 31.1743 13.2738 31.1413 13.2738 31.1067V6.88408C13.2738 5.33695 14.0585 4.05712 15.0226 4.03039C15.4879 4.0199 15.9299 4.30816 16.2728 4.8485C16.6299 5.41085 16.8345 6.18808 16.8345 6.98051V31.2178C16.8345 31.2545 16.8368 31.2901 16.8381 31.3263C16.8391 31.3582 16.8391 31.3907 16.8411 31.4227C16.8434 31.4583 16.8479 31.4929 16.8512 31.5281C16.8545 31.56 16.8564 31.592 16.8604 31.6229C16.8649 31.658 16.8715 31.6921 16.877 31.7267C16.8819 31.7566 16.8855 31.7864 16.8914 31.8158C16.8986 31.853 16.9078 31.8892 16.9163 31.9253C16.9222 31.9505 16.9271 31.9762 16.9336 32.0008C16.9437 32.0385 16.9555 32.0747 16.9669 32.1114C16.9735 32.1329 16.9794 32.1554 16.9866 32.1769C16.999 32.2141 17.0134 32.2492 17.0274 32.2848C17.0349 32.3037 17.0415 32.3242 17.0497 32.343C17.0647 32.3787 17.0814 32.4127 17.098 32.4468C17.1062 32.4636 17.1134 32.4814 17.1219 32.4976C17.1402 32.5338 17.1605 32.5673 17.1804 32.6014C17.1883 32.614 17.1951 32.6281 17.203 32.6407C17.2236 32.6742 17.2458 32.7046 17.2681 32.7356C17.2762 32.7471 17.2837 32.7597 17.2922 32.7707C17.3171 32.8037 17.3433 32.8336 17.3694 32.8634C17.3759 32.8708 17.3822 32.8792 17.389 32.887C17.4171 32.9174 17.4466 32.9452 17.4763 32.9719C17.4819 32.9767 17.4868 32.9829 17.4923 32.9877C17.525 33.016 17.5584 33.0411 17.5927 33.0652C17.596 33.0673 17.5989 33.0705 17.6022 33.0726C17.6378 33.0967 17.6744 33.1176 17.7117 33.1365C17.7137 33.1381 17.7156 33.1391 17.7179 33.1402C17.7961 33.1795 17.8775 33.2062 17.9615 33.2204C17.9622 33.2204 17.9625 33.2204 17.9631 33.2204C18.0053 33.2272 18.0481 33.2308 18.0916 33.2308C18.0919 33.2308 18.0923 33.2308 18.0929 33.2308C18.1152 33.2308 18.1371 33.2272 18.1593 33.2256C18.1799 33.2235 18.2005 33.2235 18.2208 33.2204C18.244 33.2167 18.2665 33.2093 18.2894 33.2036C18.3081 33.1989 18.327 33.1957 18.3457 33.1894C18.3702 33.1816 18.3937 33.17 18.4176 33.1601C18.4336 33.1533 18.4503 33.148 18.466 33.1402C18.4915 33.1271 18.516 33.1113 18.5408 33.0961C18.5542 33.0878 18.568 33.0809 18.5814 33.072C18.6066 33.0547 18.6307 33.0348 18.6553 33.0149C18.667 33.0055 18.6795 32.9976 18.6912 32.9871C18.7151 32.9662 18.738 32.9426 18.7612 32.919C18.7723 32.908 18.7838 32.898 18.7949 32.886C18.8184 32.8608 18.8403 32.8325 18.8625 32.8047C18.872 32.7932 18.8822 32.7822 18.8916 32.7702C18.9136 32.7408 18.9341 32.7088 18.9551 32.6774C18.9636 32.6648 18.9727 32.6533 18.9806 32.6402C19.0008 32.6077 19.0198 32.5731 19.0384 32.538C19.0463 32.5244 19.0545 32.5113 19.062 32.4971C19.08 32.462 19.0963 32.4248 19.1127 32.3881C19.1195 32.3724 19.1274 32.3577 19.1342 32.342C19.1496 32.3053 19.1633 32.267 19.1771 32.2288C19.1836 32.2109 19.1911 32.1942 19.1973 32.1758C19.2104 32.1371 19.2215 32.0967 19.233 32.0563C19.2385 32.0375 19.2451 32.0191 19.25 31.9997C19.2604 31.9604 19.2689 31.9196 19.2778 31.8792C19.2823 31.8577 19.2882 31.8367 19.2925 31.8142C19.2997 31.7759 19.3052 31.7356 19.3114 31.6963C19.315 31.6711 19.3199 31.6465 19.3232 31.6213C19.3281 31.5826 19.3311 31.5422 19.3347 31.5029C19.3369 31.4756 19.3405 31.4489 19.3422 31.4211C19.3448 31.3845 19.3448 31.3467 19.3458 31.309C19.3467 31.2781 19.3487 31.2477 19.3487 31.2157V14.5851C19.4304 13.4609 20.0258 12.5705 20.7467 12.5506C21.1171 12.5406 21.4748 12.7744 21.7511 13.2099C22.0401 13.6648 22.2059 14.2937 22.2059 14.9347V38.7176L22.2065 38.8077C22.2134 40.1132 22.7482 41.2165 23.5372 41.5529C24.3208 41.8868 25.1215 41.359 25.5335 40.228L25.5413 40.2055C26.5267 37.4456 29.1605 33.1197 29.9295 32.213C30.0184 32.1077 30.1208 32.0233 30.2336 31.9604C30.7344 31.6832 31.3625 31.8797 31.7973 32.4499C32.002 32.7188 32.2358 33.1695 32.1841 33.7895Z" fill="#49BBBD"/>
</g>
</g>
</svg>
