<svg width="177" height="197" viewBox="0 0 177 197" fill="none" xmlns="http://www.w3.org/2000/svg">
<g id="Group 77">
<g id="Rectangle 62" filter="url(#filter0_d_133_192)">
<rect width="80.1268" height="97.1378" rx="20" transform="matrix(0.966433 -0.256919 0.171486 0.985187 41.4443 47.0388)" fill="white"/>
</g>
<g id="Rectangle 61" filter="url(#filter1_d_133_192)">
<rect width="58.1974" height="70.5527" rx="20" transform="matrix(0.966433 -0.256919 0.171486 0.985187 54.3208 57.3179)" fill="white"/>
</g>
<g id="Group 76">
<rect id="Rectangle 57" width="16.0254" height="9.71378" rx="4" transform="matrix(0.966433 -0.256919 0.171486 0.985187 68.1938 70.3877)" fill="#545AE8"/>
<rect id="Rectangle 59" width="16.0254" height="9.71378" rx="4" transform="matrix(0.966433 -0.256919 -0.171486 -0.985187 92.8145 103.225)" fill="#545AE8"/>
<rect id="Rectangle 58" width="16.0254" height="25.9034" rx="4" transform="matrix(0.966433 -0.256919 0.171486 0.985187 70.3042 82.5088)" fill="#545AE8"/>
<rect id="Rectangle 60" width="16.0254" height="25.9034" rx="4" transform="matrix(0.966433 -0.256919 -0.171486 -0.985187 90.7046 91.103)" fill="#F48C06"/>
</g>
</g>
<defs>
<filter id="filter0_d_133_192" x="0.568848" y="0.927246" width="175.846" height="195.336" filterUnits="userSpaceOnUse" color-interpolation-filters="sRGB">
<feFlood flood-opacity="0" result="BackgroundImageFix"/>
<feColorMatrix in="SourceAlpha" type="matrix" values="0 0 0 0 0 0 0 0 0 0 0 0 0 0 0 0 0 0 127 0" result="hardAlpha"/>
<feOffset dy="14"/>
<feGaussianBlur stdDeviation="22"/>
<feColorMatrix type="matrix" values="0 0 0 0 0.337255 0 0 0 0 0.356863 0 0 0 0 0.866667 0 0 0 0.1 0"/>
<feBlend mode="normal" in2="BackgroundImageFix" result="effect1_dropShadow_133_192"/>
<feBlend mode="normal" in="SourceGraphic" in2="effect1_dropShadow_133_192" result="shape"/>
</filter>
<filter id="filter1_d_133_192" x="13.4453" y="18.8403" width="150.094" height="163.511" filterUnits="userSpaceOnUse" color-interpolation-filters="sRGB">
<feFlood flood-opacity="0" result="BackgroundImageFix"/>
<feColorMatrix in="SourceAlpha" type="matrix" values="0 0 0 0 0 0 0 0 0 0 0 0 0 0 0 0 0 0 127 0" result="hardAlpha"/>
<feOffset dy="16"/>
<feGaussianBlur stdDeviation="22"/>
<feColorMatrix type="matrix" values="0 0 0 0 0.0509804 0 0 0 0 0.0588235 0 0 0 0 0.109804 0 0 0 0.1 0"/>
<feBlend mode="normal" in2="BackgroundImageFix" result="effect1_dropShadow_133_192"/>
<feBlend mode="normal" in="SourceGraphic" in2="effect1_dropShadow_133_192" result="shape"/>
</filter>
</defs>
</svg>
