<svg width="161" height="48" viewBox="0 0 161 48" fill="none" xmlns="http://www.w3.org/2000/svg">
<g id="social">
<ellipse id="Oval" cx="136.669" cy="24" rx="24.1167" ry="24" fill="#EF6D58"/>
<path id="instagram" fill-rule="evenodd" clip-rule="evenodd" d="M136.67 16C134.486 16 134.214 16.0093 133.355 16.0493C130.434 16.1827 128.813 17.7947 128.679 20.7013C128.64 21.556 128.631 21.828 128.631 24C128.631 26.1733 128.64 26.4453 128.679 27.2987C128.813 30.204 130.434 31.8187 133.355 31.952C134.214 31.9907 134.486 32 136.67 32C138.853 32 139.127 31.9907 139.986 31.952C142.901 31.8187 144.529 30.2067 144.66 27.2987C144.699 26.4453 144.708 26.1733 144.708 24C144.708 21.828 144.699 21.556 144.66 20.7013C144.529 17.7987 142.906 16.1813 139.986 16.0493C139.127 16.0093 138.853 16 136.67 16ZM136.67 17.4426C138.816 17.4426 139.071 17.4506 139.919 17.4893C142.099 17.588 143.114 18.616 143.215 20.768C143.252 21.612 143.26 21.864 143.26 24C143.26 26.136 143.252 26.3893 143.215 27.232C143.114 29.3826 142.1 30.4133 139.919 30.512C139.071 30.5493 138.817 30.5586 136.67 30.5586C134.523 30.5586 134.269 30.5506 133.422 30.512C131.238 30.412 130.227 29.38 130.126 27.232C130.089 26.3893 130.079 26.136 130.079 24C130.079 21.864 130.089 21.6106 130.126 20.768C130.225 18.6146 131.241 17.5866 133.422 17.488C134.269 17.4493 134.523 17.4426 136.67 17.4426ZM132.542 24.0001C132.542 21.7308 134.391 19.8921 136.67 19.8921C138.949 19.8921 140.798 21.7321 140.798 24.0001C140.798 26.2694 138.949 28.1081 136.67 28.1081C134.391 28.1081 132.542 26.2694 132.542 24.0001ZM136.67 26.6666C135.189 26.6666 133.99 25.4733 133.99 23.9999C133.99 22.5279 135.189 21.3333 136.67 21.3333C138.149 21.3333 139.351 22.5266 139.351 23.9999C139.351 25.4733 138.149 26.6666 136.67 26.6666ZM139.995 19.7308C139.995 19.2001 140.428 18.7708 140.96 18.7708C141.495 18.7708 141.926 19.2001 141.926 19.7308C141.926 20.2614 141.493 20.6908 140.96 20.6908C140.427 20.6908 139.995 20.2601 139.995 19.7308Z" fill="white"/>
<ellipse id="Oval_2" cx="80.3974" cy="24" rx="24.1167" ry="24" fill="#EF6D58"/>
<path id="twitter" d="M88.4362 19.54C87.8453 19.8013 87.2089 19.9773 86.5417 20.0573C87.2236 19.6507 87.7448 19.008 87.9927 18.2413C87.3549 18.6173 86.6489 18.8907 85.8972 19.0373C85.297 18.3987 84.4382 18 83.4909 18C81.3606 18 79.7957 19.9773 80.2767 22.0307C77.5368 21.8933 75.105 20.5867 73.4785 18.6013C72.6143 20.076 73.031 22.0067 74.4994 22.984C73.9595 22.9667 73.4517 22.8187 73.0069 22.5733C72.9707 24.0933 74.0667 25.516 75.653 25.8333C75.1894 25.9587 74.6803 25.988 74.1631 25.8893C74.5825 27.1933 75.8031 28.1413 77.2447 28.168C75.8553 29.2507 74.1095 29.7347 72.3584 29.5293C73.8188 30.4613 75.5512 31.004 77.4135 31.004C83.5392 31.004 86.9986 25.856 86.7895 21.2387C87.4353 20.7773 87.994 20.1987 88.4362 19.54Z" fill="white"/>
<ellipse id="Oval_3" cx="24.125" cy="24" rx="24.1167" ry="24" fill="#EF6D58"/>
<path id="facebook" d="M21.7802 21.3333H19.1006V24H21.7802V32H25.7997V24H28.2381L28.4793 21.3333H25.7997V20.2227C25.7997 19.5853 25.9283 19.3333 26.5473 19.3333H28.4793V16H25.2584C22.8494 16 21.7802 17.056 21.7802 19.0773V21.3333Z" fill="white"/>
</g>
</svg>
