<svg width="14" height="16" viewBox="0 0 14 16" fill="none" xmlns="http://www.w3.org/2000/svg">
<path id="Vector" d="M1.75 2C1.50937 2 1.3125 2.3 1.3125 2.66667V3.5875L6.0293 9.4875C6.59531 10.1958 7.40742 10.1958 7.97344 9.4875L12.6875 3.5875V2.66667C12.6875 2.3 12.4906 2 12.25 2H1.75ZM1.3125 6.175V13.3333C1.3125 13.7 1.50937 14 1.75 14H12.25C12.4906 14 12.6875 13.7 12.6875 13.3333V6.175L8.80469 11.0333C7.75469 12.3458 6.24258 12.3458 5.19531 11.0333L1.3125 6.175ZM0 2.66667C0 1.19583 0.784766 0 1.75 0H12.25C13.2152 0 14 1.19583 14 2.66667V13.3333C14 14.8042 13.2152 16 12.25 16H1.75C0.784766 16 0 14.8042 0 13.3333V2.66667Z" fill="white"/>
</svg>
