<svg width="79" height="87" viewBox="0 0 79 87" fill="none" xmlns="http://www.w3.org/2000/svg">
<g id="Icon">
<rect id="Bg" x="0.438445" y="0.438445" width="78.0432" height="86.1083" rx="25.8682" stroke="#0066FF" stroke-width="0.87689"/>
<g id="Icon_2">
<g id="Password">
<path id="Fill-1" opacity="0.4" d="M46.9009 24.1624H31.7099C25.7713 24.1624 21.783 28.759 21.783 35.5999V51.3868C21.783 58.2257 25.7713 62.8224 31.7099 62.8224H46.8992C52.8379 62.8224 56.8297 58.2257 56.8297 51.3868V35.5999C56.8297 28.759 52.8396 24.1624 46.9009 24.1624Z" fill="#0066FF"/>
<path id="Combined-Shape" d="M33.7757 38.4641C35.826 38.4641 37.5433 39.9719 38.104 42.0402H48.0923C48.8108 42.0402 49.4066 42.6974 49.4066 43.4899V47.066C49.4066 47.8778 48.8108 48.5157 48.0923 48.5157C47.3563 48.5157 46.7781 47.8778 46.7781 47.066V44.9397H44.4475V47.066C44.4475 47.8778 43.8517 48.5157 43.1332 48.5157C42.3972 48.5157 41.819 47.8778 41.819 47.066V44.9397H38.104C37.5433 47.008 35.826 48.5157 33.7757 48.5157C31.2524 48.5157 29.2021 46.2735 29.2021 43.4899C29.2021 40.7257 31.2524 38.4641 33.7757 38.4641ZM33.7757 41.3636C32.7068 41.3636 31.8306 42.3108 31.8306 43.4899C31.8306 44.6691 32.7068 45.6162 33.7757 45.6162C34.8271 45.6162 35.7033 44.6691 35.7033 43.4899C35.7033 42.3108 34.8271 41.3636 33.7757 41.3636Z" fill="white"/>
</g>
</g>
</g>
</svg>
