<svg width="240" height="218" viewBox="0 0 240 218" fill="none" xmlns="http://www.w3.org/2000/svg">
<g id="user-group-solid 1" clip-path="url(#clip0_171_2)">
<path id="Vector" d="M36 54.5C36 40.0457 41.0571 26.1834 50.0589 15.9627C59.0606 5.74195 71.2696 0 84 0C96.7304 0 108.939 5.74195 117.941 15.9627C126.943 26.1834 132 40.0457 132 54.5C132 68.9543 126.943 82.8166 117.941 93.0373C108.939 103.258 96.7304 109 84 109C71.2696 109 59.0606 103.258 50.0589 93.0373C41.0571 82.8166 36 68.9543 36 54.5ZM0 205.354C0 163.415 29.925 129.438 66.8625 129.438H101.138C138.075 129.438 168 163.415 168 205.354C168 212.337 163.012 218 156.862 218H11.1375C4.9875 218 0 212.337 0 205.354ZM228.487 218H176.775C178.8 213.998 180 209.357 180 204.375V200.969C180 175.124 169.838 151.919 153.825 136.335C154.725 136.293 155.587 136.25 156.487 136.25H179.513C212.925 136.25 240 166.991 240 204.929C240 212.167 234.825 218 228.487 218ZM162 109C150.375 109 139.875 103.635 132.263 94.9918C139.65 83.666 144 69.6578 144 54.5C144 43.0891 141.525 32.3168 137.138 22.8645C144.113 17.0738 152.7 13.625 162 13.625C185.212 13.625 204 34.9566 204 61.3125C204 87.6684 185.212 109 162 109Z" fill="black"/>
</g>
<defs>
<clipPath id="clip0_171_2">
<rect width="240" height="218" fill="white"/>
</clipPath>
</defs>
</svg>
