<svg width="224" height="256" viewBox="0 0 224 256" fill="none" xmlns="http://www.w3.org/2000/svg">
<g id="user-regular (1) 1" clip-path="url(#clip0_354_2468)">
<path id="Vector" d="M152 64C152 53.3913 147.786 43.2172 140.284 35.7157C132.783 28.2143 122.609 24 112 24C101.391 24 91.2172 28.2143 83.7157 35.7157C76.2143 43.2172 72 53.3913 72 64C72 74.6087 76.2143 84.7828 83.7157 92.2843C91.2172 99.7857 101.391 104 112 104C122.609 104 132.783 99.7857 140.284 92.2843C147.786 84.7828 152 74.6087 152 64ZM48 64C48 47.0261 54.7428 30.7475 66.7452 18.7452C78.7475 6.74284 95.0261 0 112 0C128.974 0 145.253 6.74284 157.255 18.7452C169.257 30.7475 176 47.0261 176 64C176 80.9739 169.257 97.2525 157.255 109.255C145.253 121.257 128.974 128 112 128C95.0261 128 78.7475 121.257 66.7452 109.255C54.7428 97.2525 48 80.9739 48 64ZM24.65 232H199.35C194.9 200.35 167.7 176 134.85 176H89.15C56.3 176 29.1 200.35 24.65 232ZM0 241.15C0 191.9 39.9 152 89.15 152H134.85C184.1 152 224 191.9 224 241.15C224 249.35 217.35 256 209.15 256H14.85C6.65 256 0 249.35 0 241.15Z" fill="black"/>
</g>
<defs>
<clipPath id="clip0_354_2468">
<rect width="224" height="256" fill="white"/>
</clipPath>
</defs>
</svg>
